<svg width="20" height="20" viewBox="0 0 20 20" fill="none" xmlns="http://www.w3.org/2000/svg">
<path d="M10 0C8.02219 0 6.08879 0.58649 4.4443 1.6853C2.79981 2.78412 1.51809 4.3459 0.761209 6.17317C0.00433284 8.00043 -0.193701 10.0111 0.192152 11.9509C0.578004 13.8907 1.53041 15.6725 2.92894 17.0711C4.32746 18.4696 6.10929 19.422 8.0491 19.8079C9.98891 20.1937 11.9996 19.9957 13.8268 19.2388C15.6541 18.4819 17.2159 17.2002 18.3147 15.5557C19.4135 13.9112 20 11.9778 20 10C20 8.68678 19.7413 7.38642 19.2388 6.17317C18.7363 4.95991 17.9997 3.85752 17.0711 2.92893C16.1425 2.00035 15.0401 1.26375 13.8268 0.761205C12.6136 0.258658 11.3132 0 10 0ZM13.18 15.152C13.1427 15.2454 13.0858 15.3298 13.0132 15.3994C12.9406 15.469 12.8539 15.5223 12.759 15.5556C12.6641 15.589 12.5631 15.6016 12.4629 15.5927C12.3627 15.5838 12.2656 15.5536 12.178 15.504L9.463 13.394L7.721 15.002C7.68057 15.0319 7.63328 15.0511 7.58348 15.0579C7.53369 15.0647 7.48297 15.0589 7.436 15.041L7.77 12.052L7.78 12.061L7.787 12.002C7.787 12.002 12.672 7.554 12.871 7.365C13.073 7.176 13.006 7.135 13.006 7.135C13.018 6.905 12.645 7.135 12.645 7.135L6.172 11.299L3.477 10.381C3.477 10.381 3.063 10.233 3.024 9.906C2.983 9.582 3.49 9.406 3.49 9.406L14.207 5.148C14.207 5.148 15.088 4.756 15.088 5.406L13.18 15.152Z" fill="black"/>
</svg>
